<?xml version="1.0" encoding="UTF-8" standalone="no"?>
<!DOCTYPE svg PUBLIC "-//W3C//DTD SVG 1.1//EN" "http://www.w3.org/Graphics/SVG/1.1/DTD/svg11.dtd">
<svg width="100%" height="100%" viewBox="0 0 600 200" version="1.1" xmlns="http://www.w3.org/2000/svg" xmlns:xlink="http://www.w3.org/1999/xlink" xml:space="preserve" xmlns:serif="http://www.serif.com/" style="fill-rule:evenodd;clip-rule:evenodd;stroke-linejoin:round;stroke-miterlimit:2;">
    <g transform="matrix(1,0,0,1,-610.15748,-621.015748)">
        <path d="M1031.268,679.712C1036.346,676.945 1042.533,675.503 1049.882,675.503C1058.271,675.503 1065.382,678.355 1071.15,684.17C1077.187,678.458 1085.331,675.503 1095.682,675.503C1104.076,675.503 1110.732,677.856 1115.768,682.208C1122.851,688.327 1126.932,698.853 1126.932,714.153L1126.932,763.353C1126.932,766.805 1124.134,769.603 1120.682,769.603L1101.482,769.603C1098.03,769.603 1095.232,766.805 1095.232,763.353L1095.232,721.753C1095.232,715.931 1094.678,711.262 1093.403,707.768C1092.267,704.656 1090.523,702.803 1087.682,702.803C1085.509,702.803 1084.025,704.111 1082.938,706.316C1080.944,710.362 1080.132,716.461 1080.132,724.553L1080.132,763.353C1080.132,766.805 1077.334,769.603 1073.882,769.603L1054.482,769.603C1051.03,769.603 1048.232,766.805 1048.232,763.353L1048.232,723.353C1048.232,715.581 1047.513,709.728 1045.744,705.842C1044.918,704.028 1043.934,702.803 1042.282,702.803C1038.878,702.803 1036.753,704.997 1035.391,708.76C1033.963,712.705 1033.332,717.977 1033.332,724.553L1033.332,763.353C1033.332,766.805 1030.534,769.603 1027.082,769.603L1007.682,769.603C1004.23,769.603 1001.432,766.805 1001.432,763.353L1001.432,684.353C1001.432,680.901 1004.23,678.103 1007.682,678.103L1027.082,678.103C1028.692,678.103 1030.16,678.712 1031.268,679.712ZM1027.082,691.353L1027.082,684.353L1007.682,684.353L1007.682,763.353L1027.082,763.353L1027.082,724.553C1027.082,705.886 1032.149,696.553 1042.282,696.553C1050.415,696.553 1054.482,705.486 1054.482,723.353L1054.482,763.353L1073.882,763.353L1073.882,724.553C1073.882,705.886 1078.482,696.553 1087.682,696.553C1096.882,696.553 1101.482,704.953 1101.482,721.753L1101.482,763.353L1120.682,763.353L1120.682,714.153C1120.682,692.553 1112.349,681.753 1095.682,681.753C1084.349,681.753 1076.149,685.886 1071.082,694.153C1065.882,685.886 1058.815,681.753 1049.882,681.753C1039.615,681.753 1032.015,684.953 1027.082,691.353ZM743.282,678.103L765.682,678.103C768.171,678.103 770.422,679.579 771.414,681.862L786.417,716.384L802.195,681.761C803.21,679.533 805.433,678.103 807.882,678.103L829.882,678.103C832.048,678.103 834.06,679.224 835.199,681.067C836.337,682.91 836.441,685.21 835.472,687.148L779.472,799.148C778.414,801.265 776.249,802.603 773.882,802.603L752.282,802.603C750.081,802.603 748.042,801.445 746.915,799.555C745.787,797.665 745.737,795.321 746.782,793.384L769.639,751.042L737.692,687.148C736.723,685.21 736.827,682.91 737.966,681.067C739.104,679.224 741.116,678.103 743.282,678.103ZM743.282,684.353L776.682,751.153L752.282,796.353L773.882,796.353L829.882,684.353L807.882,684.353L786.282,731.753L765.682,684.353L743.282,684.353ZM930.132,723.753C930.132,737.941 925.673,749.494 916.977,758.495C908.223,767.557 896.788,772.203 882.582,772.203C868.406,772.203 856.914,767.577 848.025,758.534C839.164,749.52 834.632,737.985 834.632,723.853C834.632,709.736 839.088,698.215 847.787,689.21C856.538,680.152 868.004,675.503 882.282,675.503C896.537,675.503 908.026,680.105 916.839,689.072C925.626,698.011 930.132,709.542 930.132,723.753ZM923.882,723.753C923.882,711.353 920.049,701.253 912.382,693.453C904.715,685.653 894.682,681.753 882.282,681.753C869.882,681.753 859.882,685.686 852.282,693.553C844.682,701.42 840.882,711.52 840.882,723.853C840.882,736.186 844.749,746.286 852.482,754.153C860.215,762.02 870.249,765.953 882.582,765.953C894.915,765.953 904.882,762.02 912.482,754.153C920.082,746.286 923.882,736.153 923.882,723.753ZM860.482,724.153C860.482,716.686 862.549,710.553 866.682,705.753C870.815,700.953 876.115,698.553 882.582,698.553C889.049,698.553 894.282,701.053 898.282,706.053C902.282,711.053 904.282,716.986 904.282,723.853C904.282,730.72 902.315,736.653 898.382,741.653C894.449,746.653 889.215,749.153 882.682,749.153C876.149,749.153 870.815,746.82 866.682,742.153C862.549,737.486 860.482,731.486 860.482,724.153ZM866.732,724.153C866.732,729.78 868.189,734.428 871.361,738.009C874.28,741.305 878.068,742.903 882.682,742.903C887.165,742.903 890.771,741.219 893.47,737.789C896.546,733.879 898.032,729.222 898.032,723.853C898.032,718.499 896.521,713.856 893.402,709.957C890.646,706.513 887.036,704.803 882.582,704.803C878.046,704.803 874.318,706.464 871.418,709.831C868.21,713.556 866.732,718.358 866.732,724.153ZM988.932,702.553L988.932,720.953C988.932,724.405 986.134,727.203 982.682,727.203L943.482,727.203C940.03,727.203 937.232,724.405 937.232,720.953L937.232,702.553C937.232,699.101 940.03,696.303 943.482,696.303L982.682,696.303C986.134,696.303 988.932,699.101 988.932,702.553ZM982.682,702.553L943.482,702.553L943.482,720.953L982.682,720.953L982.682,702.553ZM1176.932,651.153C1176.932,655.907 1175.215,660.058 1171.702,663.572C1168.188,667.086 1164.036,668.803 1159.282,668.803C1154.528,668.803 1150.377,667.086 1146.863,663.572C1143.349,660.058 1141.632,655.907 1141.632,651.153C1141.632,646.399 1143.349,642.247 1146.863,638.733C1150.377,635.219 1154.528,633.503 1159.282,633.503C1164.036,633.503 1168.188,635.219 1171.702,638.733C1175.215,642.247 1176.932,646.399 1176.932,651.153ZM1170.682,651.153C1170.682,648.086 1169.549,645.42 1167.282,643.153C1165.015,640.886 1162.349,639.753 1159.282,639.753C1156.215,639.753 1153.549,640.886 1151.282,643.153C1149.015,645.42 1147.882,648.086 1147.882,651.153C1147.882,654.22 1149.015,656.886 1151.282,659.153C1153.549,661.42 1156.215,662.553 1159.282,662.553C1162.349,662.553 1165.015,661.42 1167.282,659.153C1169.549,656.886 1170.682,654.22 1170.682,651.153ZM1169.082,769.603L1149.682,769.603C1146.23,769.603 1143.432,766.805 1143.432,763.353L1143.432,684.353C1143.432,680.901 1146.23,678.103 1149.682,678.103L1169.082,678.103C1172.534,678.103 1175.332,680.901 1175.332,684.353L1175.332,763.353C1175.332,766.805 1172.534,769.603 1169.082,769.603ZM1169.082,763.353L1169.082,684.353L1149.682,684.353L1149.682,763.353L1169.082,763.353Z" style="fill:rgb(60,60,60);"/>
    </g>
    <g transform="matrix(1,0,0,1,-34,79)">
        <g transform="matrix(200,0,0,200,159.59651,62.668768)">
        </g>
        <text x="74.997px" y="62.669px" style="font-family:'LiGothicMed', 'Apple LiGothic';font-size:200px;fill:rgb(60,60,60);">k</text>
    </g>
</svg>
